<svg width="900" height="620" viewBox="0 0 900 620" fill="none" xmlns="http://www.w3.org/2000/svg">
  <rect width="900" height="620" fill="#0A1016"/>
  <rect x="40" y="40" width="820" height="540" stroke="#2A3948" stroke-width="2"/>

  <rect x="140" y="110" width="430" height="390" rx="16" fill="#101923" stroke="#2EC4B6" stroke-width="2"/>
  <rect x="560" y="170" width="200" height="260" rx="12" fill="#111D2A" stroke="#67A7FF" stroke-width="2"/>

  <text x="175" y="165" fill="#2EC4B6" font-family="Arial, sans-serif" font-size="30" font-weight="700">CARNET VACCINAL</text>
  <text x="175" y="205" fill="#BFD0DF" font-family="Arial, sans-serif" font-size="20">Patient : Exemple Utilisateur</text>
  <text x="175" y="235" fill="#BFD0DF" font-family="Arial, sans-serif" font-size="20">Mise à jour : 2026-04-20</text>

  <line x1="175" y1="270" x2="535" y2="270" stroke="#2A3A4A"/>
  <line x1="175" y1="320" x2="535" y2="320" stroke="#2A3A4A"/>
  <line x1="175" y1="370" x2="535" y2="370" stroke="#2A3A4A"/>
  <line x1="175" y1="420" x2="535" y2="420" stroke="#2A3A4A"/>

  <circle cx="192" cy="302" r="8" fill="#2EC4B6"/>
  <circle cx="192" cy="352" r="8" fill="#2EC4B6"/>
  <circle cx="192" cy="402" r="8" fill="#2EC4B6"/>

  <text x="215" y="309" fill="#D4E1EE" font-family="Arial, sans-serif" font-size="18">DTP - Rappel validé</text>
  <text x="215" y="359" fill="#D4E1EE" font-family="Arial, sans-serif" font-size="18">Hépatite B - Schéma complet</text>
  <text x="215" y="409" fill="#D4E1EE" font-family="Arial, sans-serif" font-size="18">COVID-19 - Dernière dose</text>

  <text x="590" y="220" fill="#67A7FF" font-family="Arial, sans-serif" font-size="20" font-weight="700">SYADEM</text>
  <text x="590" y="255" fill="#D4E1EE" font-family="Arial, sans-serif" font-size="16">• Aide à la décision</text>
  <text x="590" y="285" fill="#D4E1EE" font-family="Arial, sans-serif" font-size="16">• Recommandations officielles</text>
  <text x="590" y="315" fill="#D4E1EE" font-family="Arial, sans-serif" font-size="16">• Traçabilité des actes</text>
  <text x="590" y="345" fill="#D4E1EE" font-family="Arial, sans-serif" font-size="16">• Interopérabilité API</text>

  <rect x="575" y="372" width="170" height="38" rx="8" fill="#2EC4B6" fill-opacity="0.15" stroke="#2EC4B6"/>
  <text x="603" y="397" fill="#2EC4B6" font-family="Arial, sans-serif" font-size="15" font-weight="700">DOSSIER ACTIF</text>

  <text x="140" y="74" fill="#8FA5BB" font-family="Arial, sans-serif" font-size="18" letter-spacing="2">
    ILLUSTRATION - ENTREPRISE &amp; E-SANTÉ
  </text>
</svg>

